<svg width="1024" height="1024" viewBox="0 0 1024 1024" fill="none" xmlns="http://www.w3.org/2000/svg">
  <!-- Background gradient -->
  <defs>
    <linearGradient id="bgGradient" x1="0%" y1="0%" x2="100%" y2="100%">
      <stop offset="0%" style="stop-color:#6366f1;stop-opacity:1" />
      <stop offset="50%" style="stop-color:#8b5cf6;stop-opacity:1" />
      <stop offset="100%" style="stop-color:#ec4899;stop-opacity:1" />
    </linearGradient>
    <linearGradient id="waveGradient" x1="0%" y1="0%" x2="100%" y2="0%">
      <stop offset="0%" style="stop-color:#ffffff;stop-opacity:0.9" />
      <stop offset="100%" style="stop-color:#ffffff;stop-opacity:0.6" />
    </linearGradient>
  </defs>

  <!-- Background -->
  <rect width="1024" height="1024" rx="200" fill="url(#bgGradient)"/>

  <!-- Sound wave bars -->
  <g transform="translate(200, 400)" fill="url(#waveGradient)">
    <!-- Left bars -->
    <rect x="0" y="60" width="20" height="80" rx="10"/>
    <rect x="30" y="40" width="20" height="120" rx="10"/>
    <rect x="60" y="20" width="20" height="160" rx="10"/>
    <rect x="90" y="10" width="20" height="180" rx="10"/>
    <rect x="120" y="30" width="20" height="140" rx="10"/>
    <rect x="150" y="50" width="20" height="100" rx="10"/>
    <rect x="180" y="70" width="20" height="60" rx="10"/>
  </g>

  <!-- Center play button -->
  <g transform="translate(462, 462)">
    <circle cx="50" cy="50" r="50" fill="#ffffff" opacity="0.9"/>
    <path d="M40 30 L70 50 L40 70 Z" fill="url(#bgGradient)"/>
  </g>

  <!-- Right sound wave bars -->
  <g transform="translate(600, 400)" fill="url(#waveGradient)">
    <rect x="0" y="70" width="20" height="60" rx="10"/>
    <rect x="30" y="50" width="20" height="100" rx="10"/>
    <rect x="60" y="30" width="20" height="140" rx="10"/>
    <rect x="90" y="10" width="20" height="180" rx="10"/>
    <rect x="120" y="20" width="20" height="160" rx="10"/>
    <rect x="150" y="40" width="20" height="120" rx="10"/>
    <rect x="180" y="60" width="20" height="80" rx="10"/>
  </g>

  <!-- Subtle inner shadow effect -->
  <circle cx="512" cy="512" r="480" fill="none" stroke="#ffffff" stroke-width="2" opacity="0.1"/>
</svg>